<svg class="diagram-root" style="background: #f5f6f6" xmlns="http://www.w3.org/2000/svg" xmlns:xlink="http://www.w3.org/1999/xlink"><style>.diagram-root { font-family: "Helvetica Neue", sans-serif; font-size: 12px; } .t { overflow: visible; } .t-bg { y: 40; fill: #fff;   } .th { fill: #005aa0;   } .tht { fill: #fff; font-size: 14px;  } .tf { fill: #323c46; overflow: visible; } .tf.pk { fill: #005aa0; font-weight: bold; } .tf.fk { font-weight: bold; } .ty { fill: #adb1b5; font-weight: normal; text-anchor: end; } .r { fill: transparent; stroke: #c3c3c3; stroke-width: 1; } .l { stroke: 1; } .i { fill: #c2c7ce; stroke: #c2c7ce; } .i.ix { fill: #afb3b6; stroke: #000; } .fa { fill: transparent; overflow: visible; } .fa .bg.hover { fill: #f7f7f7; } .c { cy: 12; r: 4; stroke: #d2d2dc; fill: #d2d2dc; } .hr { fill: transparent; stroke: #323c46; stroke-opacity: 0.035; stroke-width: 13; } .dc { stroke: #fa5a3c; fill: #fa5a3c; } .x { stroke: white; stroke-width: 1; } .hl .th { fill: #1b9bff; } .hl .tht {  } .fhl .bg { fill: #e7f4ff; } .fhls .bg {  } .r.hl { stroke: #1b9bff; } .dim { opacity: 0.25; }</style><g class="drawing-wrapper" transform="translate(-18, -47) scale(1,1)"><g class="rs"><path d="M 184.72 355 m -1, 0 a 1,1 0 1,0 2,0 a 1,1 0 1,0 -2,0 M 184.72 355 m -0.5, 0 a 0.5,0.5 0 1,0 1,0 a 0.5,0.5 0 1,0 -1,0  M184.72 355 L184.72 355 196.72 355 M 184.72 361 m -1, 0 a 1,1 0 1,0 2,0 a 1,1 0 1,0 -2,0 M 184.72 361 m -0.5, 0 a 0.5,0.5 0 1,0 1,0 a 0.5,0.5 0 1,0 -1,0  M184.72 361 L184.72 361 191.72 355 184.72 349 M 184.72 349 m -1, 0 a 1,1 0 1,0 2,0 a 1,1 0 1,0 -2,0 M 184.72 349 m -0.5, 0 a 0.5,0.5 0 1,0 1,0 a 0.5,0.5 0 1,0 -1,0  M196.72 355 Q 225.79 355, 254.86 431 T 313 507 M 325 507 m -1, 0 a 1,1 0 1,0 2,0 a 1,1 0 1,0 -2,0 M 325 507 m -0.5, 0 a 0.5,0.5 0 1,0 1,0 a 0.5,0.5 0 1,0 -1,0  M325 507 L325 507 313 507 M319 513 L319 513 319 501" id="h3609691239" class="r"></path><path d="M 184.72 380 m -1, 0 a 1,1 0 1,0 2,0 a 1,1 0 1,0 -2,0 M 184.72 380 m -0.5, 0 a 0.5,0.5 0 1,0 1,0 a 0.5,0.5 0 1,0 -1,0  M184.72 380 L184.72 380 196.72 380 M 184.72 386 m -1, 0 a 1,1 0 1,0 2,0 a 1,1 0 1,0 -2,0 M 184.72 386 m -0.5, 0 a 0.5,0.5 0 1,0 1,0 a 0.5,0.5 0 1,0 -1,0  M184.72 386 L184.72 386 191.72 380 184.72 374 M 184.72 374 m -1, 0 a 1,1 0 1,0 2,0 a 1,1 0 1,0 -2,0 M 184.72 374 m -0.5, 0 a 0.5,0.5 0 1,0 1,0 a 0.5,0.5 0 1,0 -1,0  M196.72 380 Q 269.04 380, 341.36 270.5 T 486 161 M 498 161 m -1, 0 a 1,1 0 1,0 2,0 a 1,1 0 1,0 -2,0 M 498 161 m -0.5, 0 a 0.5,0.5 0 1,0 1,0 a 0.5,0.5 0 1,0 -1,0  M498 161 L498 161 486 161 M492 167 L492 167 492 155" id="h241446657" class="r"></path><path d="M 184.72 405 m -1, 0 a 1,1 0 1,0 2,0 a 1,1 0 1,0 -2,0 M 184.72 405 m -0.5, 0 a 0.5,0.5 0 1,0 1,0 a 0.5,0.5 0 1,0 -1,0  M184.72 405 L184.72 405 196.72 405 M 184.72 411 m -1, 0 a 1,1 0 1,0 2,0 a 1,1 0 1,0 -2,0 M 184.72 411 m -0.5, 0 a 0.5,0.5 0 1,0 1,0 a 0.5,0.5 0 1,0 -1,0  M184.72 411 L184.72 411 191.72 405 184.72 399 M 184.72 399 m -1, 0 a 1,1 0 1,0 2,0 a 1,1 0 1,0 -2,0 M 184.72 399 m -0.5, 0 a 0.5,0.5 0 1,0 1,0 a 0.5,0.5 0 1,0 -1,0  M196.72 405 Q 378.04 405, 559.36 364.5 T 922 324 M 934 324 m -1, 0 a 1,1 0 1,0 2,0 a 1,1 0 1,0 -2,0 M 934 324 m -0.5, 0 a 0.5,0.5 0 1,0 1,0 a 0.5,0.5 0 1,0 -1,0  M934 324 L934 324 922 324 M928 330 L928 330 928 318" id="h2110183872" class="r"></path><path d="M 184.72 430 m -1, 0 a 1,1 0 1,0 2,0 a 1,1 0 1,0 -2,0 M 184.72 430 m -0.5, 0 a 0.5,0.5 0 1,0 1,0 a 0.5,0.5 0 1,0 -1,0  M184.72 430 L184.72 430 196.72 430 M 184.72 436 m -1, 0 a 1,1 0 1,0 2,0 a 1,1 0 1,0 -2,0 M 184.72 436 m -0.5, 0 a 0.5,0.5 0 1,0 1,0 a 0.5,0.5 0 1,0 -1,0  M184.72 436 L184.72 436 191.72 430 184.72 424 M 184.72 424 m -1, 0 a 1,1 0 1,0 2,0 a 1,1 0 1,0 -2,0 M 184.72 424 m -0.5, 0 a 0.5,0.5 0 1,0 1,0 a 0.5,0.5 0 1,0 -1,0  M196.72 430 Q 345.29 430, 493.86 482.5 T 791 535 M 803 535 m -1, 0 a 1,1 0 1,0 2,0 a 1,1 0 1,0 -2,0 M 803 535 m -0.5, 0 a 0.5,0.5 0 1,0 1,0 a 0.5,0.5 0 1,0 -1,0  M803 535 L803 535 791 535 M797 541 L797 541 797 529" id="h3295426671" class="r"></path><path d="M 325 532 m -1, 0 a 1,1 0 1,0 2,0 a 1,1 0 1,0 -2,0 M 325 532 m -0.5, 0 a 0.5,0.5 0 1,0 1,0 a 0.5,0.5 0 1,0 -1,0  M325 532 L325 532 313 532 M 325 538 m -1, 0 a 1,1 0 1,0 2,0 a 1,1 0 1,0 -2,0 M 325 538 m -0.5, 0 a 0.5,0.5 0 1,0 1,0 a 0.5,0.5 0 1,0 -1,0  M325 538 L325 538 318 532 325 526 M 325 526 m -1, 0 a 1,1 0 1,0 2,0 a 1,1 0 1,0 -2,0 M 325 526 m -0.5, 0 a 0.5,0.5 0 1,0 1,0 a 0.5,0.5 0 1,0 -1,0  M313 532 Q 283.93 532, 254.86 381 T 196.72 230 M 184.72 230 m -1, 0 a 1,1 0 1,0 2,0 a 1,1 0 1,0 -2,0 M 184.72 230 m -0.5, 0 a 0.5,0.5 0 1,0 1,0 a 0.5,0.5 0 1,0 -1,0  M184.72 230 L184.72 230 196.72 230 M190.72 236 L190.72 236 190.72 224" id="h3930397526" class="r"></path><path d="M 474.37 582 m -1, 0 a 1,1 0 1,0 2,0 a 1,1 0 1,0 -2,0 M 474.37 582 m -0.5, 0 a 0.5,0.5 0 1,0 1,0 a 0.5,0.5 0 1,0 -1,0  M474.37 582 L474.37 582 486.37 582 M 474.37 588 m -1, 0 a 1,1 0 1,0 2,0 a 1,1 0 1,0 -2,0 M 474.37 588 m -0.5, 0 a 0.5,0.5 0 1,0 1,0 a 0.5,0.5 0 1,0 -1,0  M474.37 588 L474.37 588 481.37 582 474.37 576 M 474.37 576 m -1, 0 a 1,1 0 1,0 2,0 a 1,1 0 1,0 -2,0 M 474.37 576 m -0.5, 0 a 0.5,0.5 0 1,0 1,0 a 0.5,0.5 0 1,0 -1,0  M486.37 582 C 786.5140000000001 582, 692.71 161, 642.71 161 M 630.71 161 m -1, 0 a 1,1 0 1,0 2,0 a 1,1 0 1,0 -2,0 M 630.71 161 m -0.5, 0 a 0.5,0.5 0 1,0 1,0 a 0.5,0.5 0 1,0 -1,0  M630.71 161 L630.71 161 642.71 161 M636.71 167 L636.71 167 636.71 155" id="h3824265394" class="r"></path><path d="M 474.37 607 m -1, 0 a 1,1 0 1,0 2,0 a 1,1 0 1,0 -2,0 M 474.37 607 m -0.5, 0 a 0.5,0.5 0 1,0 1,0 a 0.5,0.5 0 1,0 -1,0  M474.37 607 L474.37 607 486.37 607 M 474.37 613 m -1, 0 a 1,1 0 1,0 2,0 a 1,1 0 1,0 -2,0 M 474.37 613 m -0.5, 0 a 0.5,0.5 0 1,0 1,0 a 0.5,0.5 0 1,0 -1,0  M474.37 613 L474.37 613 481.37 607 474.37 601 M 474.37 601 m -1, 0 a 1,1 0 1,0 2,0 a 1,1 0 1,0 -2,0 M 474.37 601 m -0.5, 0 a 0.5,0.5 0 1,0 1,0 a 0.5,0.5 0 1,0 -1,0  M486.37 607 Q 595.28 607, 704.19 465.5 T 922 324 M 934 324 m -1, 0 a 1,1 0 1,0 2,0 a 1,1 0 1,0 -2,0 M 934 324 m -0.5, 0 a 0.5,0.5 0 1,0 1,0 a 0.5,0.5 0 1,0 -1,0  M934 324 L934 324 922 324 M928 330 L928 330 928 318" id="h2036397828" class="r"></path><path d="M 474.37 632 m -1, 0 a 1,1 0 1,0 2,0 a 1,1 0 1,0 -2,0 M 474.37 632 m -0.5, 0 a 0.5,0.5 0 1,0 1,0 a 0.5,0.5 0 1,0 -1,0  M474.37 632 L474.37 632 486.37 632 M 474.37 638 m -1, 0 a 1,1 0 1,0 2,0 a 1,1 0 1,0 -2,0 M 474.37 638 m -0.5, 0 a 0.5,0.5 0 1,0 1,0 a 0.5,0.5 0 1,0 -1,0  M474.37 638 L474.37 638 481.37 632 474.37 626 M 474.37 626 m -1, 0 a 1,1 0 1,0 2,0 a 1,1 0 1,0 -2,0 M 474.37 626 m -0.5, 0 a 0.5,0.5 0 1,0 1,0 a 0.5,0.5 0 1,0 -1,0  M486.37 632 Q 562.53 632, 638.68 583.5 T 791 535 M 803 535 m -1, 0 a 1,1 0 1,0 2,0 a 1,1 0 1,0 -2,0 M 803 535 m -0.5, 0 a 0.5,0.5 0 1,0 1,0 a 0.5,0.5 0 1,0 -1,0  M803 535 L803 535 791 535 M797 541 L797 541 797 529" id="h284098168" class="r"></path><path d="M 803 560 m -1, 0 a 1,1 0 1,0 2,0 a 1,1 0 1,0 -2,0 M 803 560 m -0.5, 0 a 0.5,0.5 0 1,0 1,0 a 0.5,0.5 0 1,0 -1,0  M803 560 L803 560 791 560 M 803 566 m -1, 0 a 1,1 0 1,0 2,0 a 1,1 0 1,0 -2,0 M 803 566 m -0.5, 0 a 0.5,0.5 0 1,0 1,0 a 0.5,0.5 0 1,0 -1,0  M803 566 L803 566 796 560 803 554 M 803 554 m -1, 0 a 1,1 0 1,0 2,0 a 1,1 0 1,0 -2,0 M 803 554 m -0.5, 0 a 0.5,0.5 0 1,0 1,0 a 0.5,0.5 0 1,0 -1,0  M791 560 Q 714.84 560, 638.68 533.5 T 486.37 507 M 474.37 507 m -1, 0 a 1,1 0 1,0 2,0 a 1,1 0 1,0 -2,0 M 474.37 507 m -0.5, 0 a 0.5,0.5 0 1,0 1,0 a 0.5,0.5 0 1,0 -1,0  M474.37 507 L474.37 507 486.37 507 M480.37 513 L480.37 513 480.37 501" id="h1247618478" class="r"></path><path d="M 934 374 m -1, 0 a 1,1 0 1,0 2,0 a 1,1 0 1,0 -2,0 M 934 374 m -0.5, 0 a 0.5,0.5 0 1,0 1,0 a 0.5,0.5 0 1,0 -1,0  M934 374 L934 374 922 374 M 934 380 m -1, 0 a 1,1 0 1,0 2,0 a 1,1 0 1,0 -2,0 M 934 380 m -0.5, 0 a 0.5,0.5 0 1,0 1,0 a 0.5,0.5 0 1,0 -1,0  M934 380 L934 380 927 374 934 368 M 934 368 m -1, 0 a 1,1 0 1,0 2,0 a 1,1 0 1,0 -2,0 M 934 368 m -0.5, 0 a 0.5,0.5 0 1,0 1,0 a 0.5,0.5 0 1,0 -1,0  M922 374 Q 813.1 374, 704.19 440.5 T 486.37 507 M 474.37 507 m -1, 0 a 1,1 0 1,0 2,0 a 1,1 0 1,0 -2,0 M 474.37 507 m -0.5, 0 a 0.5,0.5 0 1,0 1,0 a 0.5,0.5 0 1,0 -1,0  M474.37 507 L474.37 507 486.37 507 M480.37 513 L480.37 513 480.37 501" id="h2959788716" class="r"></path><path d="M 757 209 m -1, 0 a 1,1 0 1,0 2,0 a 1,1 0 1,0 -2,0 M 757 209 m -0.5, 0 a 0.5,0.5 0 1,0 1,0 a 0.5,0.5 0 1,0 -1,0  M757 209 L757 209 745 209 M 757 215 m -1, 0 a 1,1 0 1,0 2,0 a 1,1 0 1,0 -2,0 M 757 215 m -0.5, 0 a 0.5,0.5 0 1,0 1,0 a 0.5,0.5 0 1,0 -1,0  M757 215 L757 215 750 209 757 203 M 757 203 m -1, 0 a 1,1 0 1,0 2,0 a 1,1 0 1,0 -2,0 M 757 203 m -0.5, 0 a 0.5,0.5 0 1,0 1,0 a 0.5,0.5 0 1,0 -1,0  M745 209 Q 680.34 209, 615.68 358 T 486.37 507 M 474.37 507 m -1, 0 a 1,1 0 1,0 2,0 a 1,1 0 1,0 -2,0 M 474.37 507 m -0.5, 0 a 0.5,0.5 0 1,0 1,0 a 0.5,0.5 0 1,0 -1,0  M474.37 507 L474.37 507 486.37 507 M480.37 513 L480.37 513 480.37 501" id="h258869661" class="r"></path><path d="M 757 234 m -1, 0 a 1,1 0 1,0 2,0 a 1,1 0 1,0 -2,0 M 757 234 m -0.5, 0 a 0.5,0.5 0 1,0 1,0 a 0.5,0.5 0 1,0 -1,0  M757 234 L757 234 745 234 M 757 240 m -1, 0 a 1,1 0 1,0 2,0 a 1,1 0 1,0 -2,0 M 757 240 m -0.5, 0 a 0.5,0.5 0 1,0 1,0 a 0.5,0.5 0 1,0 -1,0  M757 240 L757 240 750 234 757 228 M 757 228 m -1, 0 a 1,1 0 1,0 2,0 a 1,1 0 1,0 -2,0 M 757 228 m -0.5, 0 a 0.5,0.5 0 1,0 1,0 a 0.5,0.5 0 1,0 -1,0  M745 234 C 695 234, 588.8 324, 922 324 M 934 324 m -1, 0 a 1,1 0 1,0 2,0 a 1,1 0 1,0 -2,0 M 934 324 m -0.5, 0 a 0.5,0.5 0 1,0 1,0 a 0.5,0.5 0 1,0 -1,0  M934 324 L934 324 922 324 M928 330 L928 330 928 318" id="h1331966002" class="r"></path><path d="M 757 259 m -1, 0 a 1,1 0 1,0 2,0 a 1,1 0 1,0 -2,0 M 757 259 m -0.5, 0 a 0.5,0.5 0 1,0 1,0 a 0.5,0.5 0 1,0 -1,0  M757 259 L757 259 745 259 M 757 265 m -1, 0 a 1,1 0 1,0 2,0 a 1,1 0 1,0 -2,0 M 757 265 m -0.5, 0 a 0.5,0.5 0 1,0 1,0 a 0.5,0.5 0 1,0 -1,0  M757 265 L757 265 750 259 757 253 M 757 253 m -1, 0 a 1,1 0 1,0 2,0 a 1,1 0 1,0 -2,0 M 757 253 m -0.5, 0 a 0.5,0.5 0 1,0 1,0 a 0.5,0.5 0 1,0 -1,0  M745 259 C 695 259, 667.4 535, 791 535 M 803 535 m -1, 0 a 1,1 0 1,0 2,0 a 1,1 0 1,0 -2,0 M 803 535 m -0.5, 0 a 0.5,0.5 0 1,0 1,0 a 0.5,0.5 0 1,0 -1,0  M803 535 L803 535 791 535 M797 541 L797 541 797 529" id="h1642721921" class="r"></path><path d="M 432.4 243 m -1, 0 a 1,1 0 1,0 2,0 a 1,1 0 1,0 -2,0 M 432.4 243 m -0.5, 0 a 0.5,0.5 0 1,0 1,0 a 0.5,0.5 0 1,0 -1,0  M432.4 243 L432.4 243 444.4 243 M 432.4 249 m -1, 0 a 1,1 0 1,0 2,0 a 1,1 0 1,0 -2,0 M 432.4 249 m -0.5, 0 a 0.5,0.5 0 1,0 1,0 a 0.5,0.5 0 1,0 -1,0  M432.4 249 L432.4 249 439.4 243 432.4 237 M 432.4 237 m -1, 0 a 1,1 0 1,0 2,0 a 1,1 0 1,0 -2,0 M 432.4 237 m -0.5, 0 a 0.5,0.5 0 1,0 1,0 a 0.5,0.5 0 1,0 -1,0  M444.4 243 C 561.552 243, 536.37 507, 486.37 507 M 474.37 507 m -1, 0 a 1,1 0 1,0 2,0 a 1,1 0 1,0 -2,0 M 474.37 507 m -0.5, 0 a 0.5,0.5 0 1,0 1,0 a 0.5,0.5 0 1,0 -1,0  M474.37 507 L474.37 507 486.37 507 M480.37 513 L480.37 513 480.37 501" id="h1885020847" class="r"></path><path d="M 432.4 268 m -1, 0 a 1,1 0 1,0 2,0 a 1,1 0 1,0 -2,0 M 432.4 268 m -0.5, 0 a 0.5,0.5 0 1,0 1,0 a 0.5,0.5 0 1,0 -1,0  M432.4 268 L432.4 268 444.4 268 M 432.4 274 m -1, 0 a 1,1 0 1,0 2,0 a 1,1 0 1,0 -2,0 M 432.4 274 m -0.5, 0 a 0.5,0.5 0 1,0 1,0 a 0.5,0.5 0 1,0 -1,0  M432.4 274 L432.4 274 439.4 268 432.4 262 M 432.4 262 m -1, 0 a 1,1 0 1,0 2,0 a 1,1 0 1,0 -2,0 M 432.4 262 m -0.5, 0 a 0.5,0.5 0 1,0 1,0 a 0.5,0.5 0 1,0 -1,0  M444.4 268 Q 563.8 268, 683.2 296 T 922 324 M 934 324 m -1, 0 a 1,1 0 1,0 2,0 a 1,1 0 1,0 -2,0 M 934 324 m -0.5, 0 a 0.5,0.5 0 1,0 1,0 a 0.5,0.5 0 1,0 -1,0  M934 324 L934 324 922 324 M928 330 L928 330 928 318" id="h2772002792" class="r"></path><path d="M 432.4 293 m -1, 0 a 1,1 0 1,0 2,0 a 1,1 0 1,0 -2,0 M 432.4 293 m -0.5, 0 a 0.5,0.5 0 1,0 1,0 a 0.5,0.5 0 1,0 -1,0  M432.4 293 L432.4 293 444.4 293 M 432.4 299 m -1, 0 a 1,1 0 1,0 2,0 a 1,1 0 1,0 -2,0 M 432.4 299 m -0.5, 0 a 0.5,0.5 0 1,0 1,0 a 0.5,0.5 0 1,0 -1,0  M432.4 299 L432.4 299 439.4 293 432.4 287 M 432.4 287 m -1, 0 a 1,1 0 1,0 2,0 a 1,1 0 1,0 -2,0 M 432.4 287 m -0.5, 0 a 0.5,0.5 0 1,0 1,0 a 0.5,0.5 0 1,0 -1,0  M444.4 293 Q 531.05 293, 617.7 414 T 791 535 M 803 535 m -1, 0 a 1,1 0 1,0 2,0 a 1,1 0 1,0 -2,0 M 803 535 m -0.5, 0 a 0.5,0.5 0 1,0 1,0 a 0.5,0.5 0 1,0 -1,0  M803 535 L803 535 791 535 M797 541 L797 541 797 529" id="h3571978994" class="r"></path><path d="M 263 318 m -1, 0 a 1,1 0 1,0 2,0 a 1,1 0 1,0 -2,0 M 263 318 m -0.5, 0 a 0.5,0.5 0 1,0 1,0 a 0.5,0.5 0 1,0 -1,0  M263 318 L263 318 251 318 M 263 324 m -1, 0 a 1,1 0 1,0 2,0 a 1,1 0 1,0 -2,0 M 263 324 m -0.5, 0 a 0.5,0.5 0 1,0 1,0 a 0.5,0.5 0 1,0 -1,0  M263 324 L263 324 256 318 263 312 M 263 312 m -1, 0 a 1,1 0 1,0 2,0 a 1,1 0 1,0 -2,0 M 263 312 m -0.5, 0 a 0.5,0.5 0 1,0 1,0 a 0.5,0.5 0 1,0 -1,0  M251 318 C -155.8 318, -22 230, 28 230 M 40 230 m -1, 0 a 1,1 0 1,0 2,0 a 1,1 0 1,0 -2,0 M 40 230 m -0.5, 0 a 0.5,0.5 0 1,0 1,0 a 0.5,0.5 0 1,0 -1,0  M40 230 L40 230 28 230 M34 236 L34 236 34 224" id="h2885082375" class="r"></path></g><g class="hrs"></g><g class="ts"><svg width="154.04" height="125" x="934" y="267" id="h1777437347" class="t"><rect height="40" width="154.04" class="th"></rect><text x="13" y="25" class="tht">surveillance</text><rect height="85" width="154.04" class="t-bg"></rect><text x="13" y="61" class="tf pk">surveillanceID<tspan x="141.04" class="ty">int</tspan></text><path d="M7,14A2,2 0 0,1 5,12A2,2 0 0,1 7,10A2,2 0 0,1 9,12A2,2 0 0,1 7,14M12.65,10C11.83,7.67 9.61,6 7, 6A6, 6 0 0, 0 1, 12A6, 6 0 0, 0 7, 18C9.61, 18 11.83, 16.33 12.65, 14H17V18H21V14H23V10H12.65Z" class="i pk" transform="translate(108.36617187499999, 48) scale(0.65)"></path><text x="13" y="86" class="tf">type<tspan x="141.04" class="ty">varchar(200)</tspan></text><path d="M22,18V22H18V19H15V16H12L9.74,13.74C9.19,13.91 8.61,14 8,14A6,6 0 0,1 2,8A6,6 0 0,1 8,2A6,6 0 0,1 14,8C14,8.61 13.91, 9.19 13.74, 9.74L22, 18M7, 5A2, 2 0 0, 0 5, 7A2, 2 0 0, 0 7, 9A2, 2 0 0, 0 9, 7A2, 2 0 0, 0 7, 5Z" class="i uq" transform="translate(57.01265624999999, 75.5) scale(0.5)"></path><text x="13" y="111" class="tf fk">OpreationsID<tspan x="141.04" class="ty">int</tspan></text></svg><svg width="144.72" height="200" x="757" y="77" id="h39957135" class="t"><rect height="40" width="144.72" class="th"></rect><text x="13" y="25" class="tht">stores</text><rect height="160" width="144.72" class="t-bg"></rect><text x="13" y="61" class="tf pk">storesID<tspan x="131.72" class="ty">int</tspan></text><path d="M7,14A2,2 0 0,1 5,12A2,2 0 0,1 7,10A2,2 0 0,1 9,12A2,2 0 0,1 7,14M12.65,10C11.83,7.67 9.61,6 7, 6A6, 6 0 0, 0 1, 12A6, 6 0 0, 0 7, 18C9.61, 18 11.83, 16.33 12.65, 14H17V18H21V14H23V10H12.65Z" class="i pk" transform="translate(99.046171875, 48) scale(0.65)"></path><text x="13" y="86" class="tf">Quantity<tspan x="131.72" class="ty">not?</tspan></text><text x="13" y="111" class="tf">tools<tspan x="131.72" class="ty">varchar(500)</tspan></text><text x="13" y="136" class="tf fk">OpreationsID<tspan x="131.72" class="ty">int</tspan></text><text x="13" y="161" class="tf fk">surveillanceID<tspan x="131.72" class="ty">int</tspan></text><text x="13" y="186" class="tf fk">entomologicalID<tspan x="131.72" class="ty">int</tspan></text></svg><svg width="164.72" height="125" x="803" y="478" id="h1261950008" class="t"><rect height="40" width="164.72" class="th"></rect><text x="13" y="25" class="tht">entomological</text><rect height="85" width="164.72" class="t-bg"></rect><text x="13" y="61" class="tf pk">entomologicalID<tspan x="151.72" class="ty">int</tspan></text><path d="M7,14A2,2 0 0,1 5,12A2,2 0 0,1 7,10A2,2 0 0,1 9,12A2,2 0 0,1 7,14M12.65,10C11.83,7.67 9.61,6 7, 6A6, 6 0 0, 0 1, 12A6, 6 0 0, 0 7, 18C9.61, 18 11.83, 16.33 12.65, 14H17V18H21V14H23V10H12.65Z" class="i pk" transform="translate(119.046171875, 48) scale(0.65)"></path><text x="13" y="86" class="tf fk">OpreationsID<tspan x="151.72" class="ty">int</tspan></text><text x="13" y="111" class="tf">type<tspan x="151.72" class="ty">varchar(200)</tspan></text><path d="M22,18V22H18V19H15V16H12L9.74,13.74C9.19,13.91 8.61,14 8,14A6,6 0 0,1 2,8A6,6 0 0,1 8,2A6,6 0 0,1 14,8C14,8.61 13.91, 9.19 13.74, 9.74L22, 18M7, 5A2, 2 0 0, 0 5, 7A2, 2 0 0, 0 7, 9A2, 2 0 0, 0 9, 7A2, 2 0 0, 0 7, 5Z" class="i uq" transform="translate(67.69265625, 100.5) scale(0.5)"></path></svg><svg width="149.37" height="200" x="325" y="450" id="h3904957902" class="t"><rect height="40" width="149.37" class="th"></rect><text x="13" y="25" class="tht">opreations</text><rect height="160" width="149.37" class="t-bg"></rect><text x="13" y="61" class="tf pk">OpreationsID<tspan x="136.37" class="ty">int</tspan></text><path d="M7,14A2,2 0 0,1 5,12A2,2 0 0,1 7,10A2,2 0 0,1 9,12A2,2 0 0,1 7,14M12.65,10C11.83,7.67 9.61,6 7, 6A6, 6 0 0, 0 1, 12A6, 6 0 0, 0 7, 18C9.61, 18 11.83, 16.33 12.65, 14H17V18H21V14H23V10H12.65Z" class="i pk" transform="translate(103.696171875, 48) scale(0.65)"></path><text x="13" y="86" class="tf fk">AdminID<tspan x="136.37" class="ty">int</tspan></text><text x="13" y="111" class="tf">name<tspan x="136.37" class="ty">string</tspan></text><text x="13" y="136" class="tf fk">employID<tspan x="136.37" class="ty">int</tspan></text><text x="13" y="161" class="tf fk">surveillanceID<tspan x="136.37" class="ty">int</tspan></text><text x="13" y="186" class="tf fk">entomologicalID<tspan x="136.37" class="ty">int</tspan></text></svg><svg width="132.71" height="175" x="498" y="104" id="h3492873354" class="t"><rect height="40" width="132.71" class="th"></rect><text x="13" y="25" class="tht">employ</text><rect height="135" width="132.71" class="t-bg"></rect><text x="13" y="61" class="tf pk">employID<tspan x="119.71000000000001" class="ty">int</tspan></text><path d="M7,14A2,2 0 0,1 5,12A2,2 0 0,1 7,10A2,2 0 0,1 9,12A2,2 0 0,1 7,14M12.65,10C11.83,7.67 9.61,6 7, 6A6, 6 0 0, 0 1, 12A6, 6 0 0, 0 7, 18C9.61, 18 11.83, 16.33 12.65, 14H17V18H21V14H23V10H12.65Z" class="i pk" transform="translate(87.03617187500001, 48) scale(0.65)"></path><text x="13" y="86" class="tf">Name<tspan x="119.71000000000001" class="ty">string</tspan></text><text x="13" y="111" class="tf">email<tspan x="119.71000000000001" class="ty">string</tspan></text><text x="13" y="136" class="tf">phon<tspan x="119.71000000000001" class="ty">int</tspan></text><text x="13" y="161" class="tf">Address<tspan x="119.71000000000001" class="ty">string?</tspan></text></svg><svg width="169.4" height="250" x="263" y="86" id="h1100145647" class="t"><rect height="40" width="169.4" class="th"></rect><text x="13" y="25" class="tht">Purchases</text><rect height="210" width="169.4" class="t-bg"></rect><text x="13" y="61" class="tf pk">PurchasesID<tspan x="156.4" class="ty">int</tspan></text><path d="M7,14A2,2 0 0,1 5,12A2,2 0 0,1 7,10A2,2 0 0,1 9,12A2,2 0 0,1 7,14M12.65,10C11.83,7.67 9.61,6 7, 6A6, 6 0 0, 0 1, 12A6, 6 0 0, 0 7, 18C9.61, 18 11.83, 16.33 12.65, 14H17V18H21V14H23V10H12.65Z" class="i pk" transform="translate(123.726171875, 48) scale(0.65)"></path><text x="13" y="86" class="tf">price<tspan x="156.4" class="ty">int</tspan></text><text x="13" y="111" class="tf">quntity<tspan x="156.4" class="ty">not?</tspan></text><text x="13" y="136" class="tf">tools<tspan x="156.4" class="ty">varchar(500)not?</tspan></text><text x="13" y="161" class="tf fk">OpreationsID<tspan x="156.4" class="ty">int</tspan></text><text x="13" y="186" class="tf fk">surveillanceID<tspan x="156.4" class="ty">int</tspan></text><text x="13" y="211" class="tf fk">entomologicalID<tspan x="156.4" class="ty">int</tspan></text><text x="13" y="236" class="tf fk">AdminID<tspan x="156.4" class="ty">int</tspan></text></svg><svg width="144.72" height="275" x="40" y="173" id="h324793353" class="t"><rect height="40" width="144.72" class="th"></rect><text x="13" y="25" class="tht">admin</text><rect height="235" width="144.72" class="t-bg"></rect><text x="13" y="61" class="tf pk">AdminID<tspan x="131.72" class="ty">int</tspan></text><path d="M7,14A2,2 0 0,1 5,12A2,2 0 0,1 7,10A2,2 0 0,1 9,12A2,2 0 0,1 7,14M12.65,10C11.83,7.67 9.61,6 7, 6A6, 6 0 0, 0 1, 12A6, 6 0 0, 0 7, 18C9.61, 18 11.83, 16.33 12.65, 14H17V18H21V14H23V10H12.65Z" class="i pk" transform="translate(99.046171875, 48) scale(0.65)"></path><text x="13" y="86" class="tf">Name<tspan x="131.72" class="ty">string</tspan></text><path d="M814.545 581.818v-23.273H535.273v-93.09h-46.546v93.09H209.455v139.637H256V605.09h232.727v93.09h46.546v-93.09H768v93.09h46.545V581.819zM674.91 465.455H349.091V139.636h325.818v325.819zM325.82 884.364H139.635V698.182h186.182v186.182z m279.272 0H418.909V698.182h186.182v186.182z m279.273 0H698.182V698.182h186.182v186.182zM395.636 418.909h232.728V186.182H395.636v232.727zM186.182 837.82h93.09v-93.092h-93.09v93.091z m279.273 0h93.09v-93.092h-93.09v93.091z m279.272 0h93.091v-93.092h-93.09v93.091z" class="i ix" transform="translate(87.37625, 75) scale(0.014)"></path><text x="13" y="111" class="tf">email<tspan x="131.72" class="ty">string</tspan></text><text x="13" y="136" class="tf">phon<tspan x="131.72" class="ty">int</tspan></text><text x="13" y="161" class="tf">Address<tspan x="131.72" class="ty">string?</tspan></text><text x="13" y="186" class="tf fk">OpreationsID<tspan x="131.72" class="ty">int</tspan></text><text x="13" y="211" class="tf fk">employID<tspan x="131.72" class="ty">int</tspan></text><text x="13" y="236" class="tf fk">surveillanceID<tspan x="131.72" class="ty">int</tspan></text><text x="13" y="261" class="tf fk">entomologicalID<tspan x="131.72" class="ty">int</tspan></text></svg></g></g><text class="qdbd-link" x="10" y="20">www.quickdatabasediagrams.com</text></svg>